<svg xmlns="http://www.w3.org/2000/svg" viewBox="0 0 120 60"><defs><style>.cls-1{fill:none;}.cls-2{fill:#fff;}</style></defs><g id="Layer_2" data-name="Layer 2"><g id="Layer_1-2" data-name="Layer 1"><g id="jobb-nyilak"><rect class="cls-1" x="60" width="60" height="60"/><polygon class="cls-2" points="68.05 55 60.54 47.49 78.03 30 60.54 12.51 68.05 5 93.05 30 68.05 55"/><polygon class="cls-2" points="94.46 55 86.95 47.49 104.44 30 86.95 12.51 94.46 5 119.46 30 94.46 55"/></g><g id="bal-nyilak"><rect class="cls-1" width="60" height="60"/><polygon class="cls-2" points="51.95 5 59.46 12.51 41.97 30 59.46 47.49 51.95 55 26.95 30 51.95 5"/><polygon class="cls-2" points="25.54 5 33.05 12.51 15.56 30 33.05 47.49 25.54 55 0.54 30 25.54 5"/></g></g></g></svg>